<?xml version="1.0" encoding="UTF-8"?>
<svg width="256px" height="256px" viewBox="0 0 256 256" version="1.1" xmlns="http://www.w3.org/2000/svg">
    <g fill="#47A248">
        <path d="M248,128 C248,193.9 193.9,248 128,248 C62.1,248 8,193.9 8,128 C8,62.1 62.1,8 128,8 C193.9,8 248,62.1 248,128 Z"/>
    </g>
    <g fill="#FFFFFF">
        <path d="M188,128 C188,145.7 173.7,160 156,160 L100,160 C82.3,160 68,145.7 68,128 C68,110.3 82.3,96 100,96 L156,96 C173.7,96 188,110.3 188,128 Z M156,112 L100,112 C91.2,112 84,119.2 84,128 C84,136.8 91.2,144 100,144 L156,144 C164.8,144 172,136.8 172,128 C172,119.2 164.8,112 156,112 Z"/>
    </g>
</svg>
