<?xml version="1.0" encoding="UTF-8"?>
<svg width="256px" height="256px" viewBox="0 0 256 256" xmlns="http://www.w3.org/2000/svg">
  <path fill="#4479A1" d="M235.648 194.212c-13.918.038-24.705-1.159-33.752-4.24-2.643-.805-6.841-.805-7.337-3.354 1.443-1.443 1.643-3.742 2.842-5.738 2.15-4.389 5.885-10.319 9.229-13.418 3.647-3.537 7.337-7.13 11.132-10.224 6.841-5.479 14.525-8.733 21.167-14.268 3.836-3.234 7.724-7.425 11.517-10.961 1.899-1.704 3.108-4.389 5.534-5.332v.694c-1.154 1.443-1.443 3.742-2.488 5.738-1.539 1.539-3.108 2.942-4.668 4.482-4.482 6.045-10.082 11.323-16.012 15.712-4.863 3.392-15.609 7.929-17.599 13.521l-.294.305c3.392.305 7.377.694 10.571 1.088 5.282.744 10.066 0 15.462 1.088 2.498.481 4.975 1.159 7.468 1.899v1.25c-2.792 2.792-4.801 6.534-7.724 9.125-7.918 6.906-16.557 13.759-25.529 19.458-4.974 3.173-11.324 5.282-16.557 7.968-1.798.961-4.9 1.399-6.045 2.943-2.792 3.392-4.36 7.827-6.341 11.812-4.435 8.472-8.777 17.85-12.664 26.822-2.792 6.091-4.509 12.176-7.918 17.799-16.864 25.09-35.016 40.058-63.189 55.02-6.034 3.156-13.271 4.482-20.927 6.143-4.086.199-8.178.549-12.27.744-2.641-1.443-5.282-5.344-7.573-7.181-9.408-5.932-16.864-13.759-24.24-20.79l-.388.366-.031.031c-4.668 4.668-11.707 7.337-18.494 10.066-3.173 1.25-8.575 1.899-10.466 3.951l.125.125-.125-.125c-3.173-3.173-5.282-7.443-7.573-11.176-5.738-9.189-8.685-19.321-12.481-29.309-2.498-6.341-4.087-12.683-7.187-18.494-14.673-27.763-30.635-44.739-55.125-61.31-5.249-3.463-11.561-4.974-18.257-6.811l-10.71-.618c-2.28-.95-4.668-3.573-6.709-4.815-8.417-5.282-30.086-16.758-36.304-1.649-3.951 9.57 5.885 18.944 9.295 23.796 2.442 3.392 5.575 7.187 7.337 10.961 1.048 2.498 1.354 5.062 2.442 7.724 2.15 6.029 4.164 12.759 7.032 18.393 1.492 2.859 3.108 5.885 4.974 8.453.98 1.399 2.7 2.049 2.978 4.343-1.693 2.357-1.788 6.002-2.78 9.02-4.351 13.677-2.67 30.635 3.513 40.702 1.893 3.083 6.338 9.674 12.358 7.131 5.282-2.197 4.087-8.795 5.575-14.673l.347-1.443.125.125c2.498 4.975 4.975 9.739 7.187 14.673 5.414 8.54 15.018 17.461 23.058 23.339 4.198 3.083 7.537 8.453 12.847 10.347v-.618h-.125c-1.048-1.649-2.7-2.357-4.087-3.573-3.207-3.207-6.771-7.187-9.295-10.819-7.468-9.962-14.001-20.927-19.845-32.286-2.842-5.513-5.344-11.561-7.687-17.074-1.048-2.049-1.048-5.1-2.792-6.1-2.6 3.9-6.434 7.175-8.453 11.939-3.268 7.566-3.682 16.864-4.975 26.504l-.743.125c-5.738-.743-7.724-7.337-9.851-12.359-5.332-12.683-6.285-33.016-1.619-47.638 1.25-3.682 6.57-15.243 4.432-18.775-1.095-3.354-4.668-5.282-6.674-7.918-2.357-3.173-4.975-7.187-6.576-10.819-4.349-9.295-6.483-19.684-11.219-29.028-2.28-4.509-6.202-9.125-9.407-13.271-3.573-4.668-7.566-7.968-10.347-13.521-.961-1.899-2.262-4.975-1.149-6.959.387-1.354 1.048-1.899 2.488-2.262 2.357-1.988 8.965 1.048 11.323 1.899 6.659 2.498 12.176 4.815 17.755 8.209 2.6 1.593 5.249 4.668 8.453 5.482h3.792c5.738 1.25 12.176.387 17.558 1.988 9.525 2.943 18.156 7.175 25.846 11.812 23.644 14.374 43.042 34.857 56.118 59.322 2.15 4.087 3.108 7.918 5.062 12.176 3.9 9.019 8.685 18.305 12.481 27.166 3.802 8.685 7.468 17.558 12.847 24.789 2.701 3.9 13.759 5.932 18.729 7.918 3.682 1.492 9.295 2.792 12.545 4.589 6.229 3.463 12.358 7.337 18.257 11.219 2.942 1.943 12.176 6.674 12.664 10.347z"/>
</svg>
