<?xml version="1.0" encoding="UTF-8"?>
<svg width="256px" height="256px" viewBox="0 0 256 256" xmlns="http://www.w3.org/2000/svg">
  <path fill="#777BB4" d="M128 0c70.692 0 128 57.308 128 128 0 70.692-57.308 128-128 128C57.308 256 0 198.692 0 128 0 57.308 57.308 0 128 0zm-7.168 201.344c-2.816 0-5.376-.512-7.424-1.536-2.048-1.024-3.84-2.304-5.12-3.84-1.28-1.536-2.304-3.328-2.816-5.376-.512-2.048-.512-4.096.256-6.144l26.624-73.728-53.248 73.728c-1.792 2.304-4.096 4.096-6.912 5.12-2.816 1.024-5.888 1.024-8.704 0-2.816-1.024-5.12-2.816-6.912-5.12-1.792-2.304-2.56-5.12-2.304-7.936V128h16v37.888l53.248-73.728c1.792-2.304 4.096-4.096 6.912-5.12 2.816-1.024 5.888-1.024 8.704 0 2.816 1.024 5.12 2.816 6.912 5.12 1.792 2.304 2.56 5.12 2.304 7.936v96c0 2.816-.768 5.376-2.304 7.68-1.536 2.304-3.584 4.096-6.144 5.376-2.56 1.28-5.376 1.792-8.448 1.792zm64 0c-2.816 0-5.376-.512-7.424-1.536-2.048-1.024-3.84-2.304-5.12-3.84-1.28-1.536-2.304-3.328-2.816-5.376-.512-2.048-.512-4.096.256-6.144l26.624-73.728-53.248 73.728c-1.792 2.304-4.096 4.096-6.912 5.12-2.816 1.024-5.888 1.024-8.704 0-2.816-1.024-5.12-2.816-6.912-5.12-1.792-2.304-2.56-5.12-2.304-7.936V128h16v37.888l53.248-73.728c1.792-2.304 4.096-4.096 6.912-5.12 2.816-1.024 5.888-1.024 8.704 0 2.816 1.024 5.12 2.816 6.912 5.12 1.792 2.304 2.56 5.12 2.304 7.936v96c0 2.816-.768 5.376-2.304 7.68-1.536 2.304-3.584 4.096-6.144 5.376-2.56 1.28-5.376 1.792-8.448 1.792z"/>
</svg>
