<?xml version="1.0" encoding="UTF-8"?>
<svg width="256px" height="256px" viewBox="0 0 256 256" version="1.1" xmlns="http://www.w3.org/2000/svg">
    <g fill="#61DAFB">
        <path d="M128,128 m-11,0 a11,11 0 1,1 22,0 a11,11 0 1,1 -22,0"/>
        <path d="M128,128 m-98,0 a98,38 0 1,0 196,0 a98,38 0 1,0 -196,0" fill="none" stroke="#61DAFB" stroke-width="18"/>
        <path d="M128,128 m-98,0 a98,38 0 1,0 196,0 a98,38 0 1,0 -196,0" fill="none" stroke="#61DAFB" stroke-width="18" transform="rotate(60, 128, 128)"/>
        <path d="M128,128 m-98,0 a98,38 0 1,0 196,0 a98,38 0 1,0 -196,0" fill="none" stroke="#61DAFB" stroke-width="18" transform="rotate(-60, 128, 128)"/>
    </g>
</svg>
