<?xml version="1.0" encoding="UTF-8"?>
<svg width="256px" height="256px" viewBox="0 0 256 256" version="1.1" xmlns="http://www.w3.org/2000/svg">
    <g fill="#3178C6">
        <path d="M20,0 h216 a20,20 0 0 1 20,20 v216 a20,20 0 0 1 -20,20 h-216 a20,20 0 0 1 -20,-20 v-216 a20,20 0 0 1 20,-20 z"/>
    </g>
    <g fill="#FFFFFF">
        <path d="M146.658132,213.916462 L146.739401,212.914568 L145.786517,213.802965 L146.658132,213.916462 Z M127.583172,213.916462 L128.458563,213.783151 L127.510594,212.914568 L127.583172,213.916462 Z M149.897308,122.489086 L149.897308,110.446312 L114.351629,110.446312 L114.351629,207.037077 L149.897308,207.037077 L149.897308,193.303988 L130.451412,193.303988 L130.451412,170.858463 L149.897308,170.858463 L149.897308,157.203511 L130.451412,157.203511 L130.451412,124.180261 L149.897308,122.489086 Z"/>
    </g>
</svg>
