<?xml version="1.0" encoding="UTF-8"?>
<svg width="256px" height="256px" viewBox="0 0 256 256" version="1.1" xmlns="http://www.w3.org/2000/svg">
    <g fill="#F34F29">
        <path d="M251.172,116.594 L139.4,4.828 C132.6,-1.972 121.4,-1.972 114.6,4.828 L91.2,28.228 L120.6,57.628 C127.6,55.428 135.4,57.028 140.8,62.428 C146.2,67.828 147.8,75.628 145.6,82.628 L173.8,110.828 C180.8,108.628 188.6,110.228 194,115.628 C201.4,123.028 201.4,134.828 194,142.228 C186.6,149.628 174.8,149.628 167.4,142.228 C161.8,136.628 160.2,128.428 162.8,121.228 L136.4,94.828 L136.4,162.828 C138.4,163.828 140.2,165.228 142,167.028 C149.4,174.428 149.4,186.228 142,193.628 C134.6,201.028 122.8,201.028 115.4,193.628 C108,186.228 108,174.428 115.4,167.028 C117.6,164.828 120.2,163.228 123,162.228 L123,93.628 C120.2,92.628 117.6,91.028 115.4,88.828 C109.8,83.228 108.2,75.028 110.8,67.828 L81.8,38.828 L4.8,115.828 C-2,122.628 -2,133.828 4.8,140.628 L116.6,252.428 C123.4,259.228 134.6,259.228 141.4,252.428 L251.2,142.628 C258,135.828 258,124.428 251.2,117.628 L251.172,116.594 Z"/>
    </g>
</svg>
