<?xml version="1.0" encoding="UTF-8"?>
<svg width="256px" height="256px" viewBox="0 0 256 256" xmlns="http://www.w3.org/2000/svg">
  <path fill="#FF2D20" d="M256 128c0 70.692-57.308 128-128 128S0 198.692 0 128 57.308 0 128 0s128 57.308 128 128zm-98.816-18.24L87.36 204.48l-3.84-2.304c-1.792-1.024-3.328-2.304-4.608-3.84-1.28-1.536-2.304-3.328-2.816-5.376-.512-2.048-.512-4.096.256-6.144.768-2.048 2.048-3.84 3.84-5.12l55.552-77.568-53.248 73.728-26.624-15.36 69.888-97.536 3.84 2.304c1.792 1.024 3.328 2.304 4.608 3.84 1.28 1.536 2.304 3.328 2.816 5.376.512 2.048.512 4.096-.256 6.144-.768 2.048-2.048 3.84-3.84 5.12l-55.552 77.568 53.248-73.728 26.624 15.36z"/>
</svg>
