<?xml version="1.0" encoding="UTF-8"?>
<svg width="256px" height="256px" viewBox="0 0 256 256" version="1.1" xmlns="http://www.w3.org/2000/svg">
    <g fill="#339933">
        <path d="M119.878,0.0001 L8.585,64.0001 C3.305,67.0001 0,72.8001 0,79.0001 L0,176.0001 C0,182.2001 3.305,188.0001 8.585,191.0001 L119.878,255.0001 C125.158,258.0001 131.842,258.0001 137.122,255.0001 L248.415,191.0001 C253.695,188.0001 257,182.2001 257,176.0001 L257,79.0001 C257,72.8001 253.695,67.0001 248.415,64.0001 L137.122,0.0001 C131.842,-3.0001 125.158,-3.0001 119.878,0.0001"/>
    </g>
    <g fill="#FFFFFF">
        <path d="M128,128 L188,168 L188,88 L128,128 Z M68,88 L68,168 L128,128 L68,88 Z"/>
    </g>
</svg>
