<?xml version="1.0" encoding="UTF-8"?>
<svg width="256px" height="256px" viewBox="0 0 256 256" version="1.1" xmlns="http://www.w3.org/2000/svg">
    <g fill="#336791">
        <path d="M128,0 C57.308,0 0,57.308 0,128 C0,198.692 57.308,256 128,256 C198.692,256 256,198.692 256,128 C256,57.308 198.692,0 128,0 Z M128,240 C66.24,240 16,189.76 16,128 C16,66.24 66.24,16 128,16 C189.76,16 240,66.24 240,128 C240,189.76 189.76,240 128,240 Z"/>
    </g>
    <g fill="#336791">
        <path d="M140,128 C140,134.627 134.627,140 128,140 C121.373,140 116,134.627 116,128 C116,121.373 121.373,116 128,116 C134.627,116 140,121.373 140,128 Z"/>
        <path d="M128,68 C94.863,68 68,94.863 68,128 C68,161.137 94.863,188 128,188 C161.137,188 188,161.137 188,128 C188,94.863 161.137,68 128,68 Z M128,172 C103.699,172 84,152.301 84,128 C84,103.699 103.699,84 128,84 C152.301,84 172,103.699 172,128 C172,152.301 152.301,172 128,172 Z"/>
    </g>
</svg>
