<?xml version="1.0" encoding="UTF-8"?>
<svg width="256px" height="256px" viewBox="0 0 256 256" version="1.1" xmlns="http://www.w3.org/2000/svg">
    <g fill="#306998">
        <path d="M127.5,0 C58.2,0 62.1,28.2 62.1,28.2 L62.2,57.7 L128.4,57.7 L128.4,66.4 L39.2,66.4 C39.2,66.4 0,61.9 0,128.6 C0,195.3 34.2,193.5 34.2,193.5 L54.7,193.5 L54.7,162.7 C54.7,162.7 53.8,128.5 88.2,128.5 L153.8,128.5 C153.8,128.5 187.4,128.9 187.4,96.2 L187.4,34.2 C187.4,34.2 192.9,0 127.5,0 Z M91.4,19.8 C97.5,19.8 102.4,24.7 102.4,30.8 C102.4,36.9 97.5,41.8 91.4,41.8 C85.3,41.8 80.4,36.9 80.4,30.8 C80.4,24.7 85.3,19.8 91.4,19.8 Z"/>
    </g>
    <g fill="#FFD43B">
        <path d="M128.5,256 C197.8,256 193.9,227.8 193.9,227.8 L193.8,198.3 L127.6,198.3 L127.6,189.6 L216.8,189.6 C216.8,189.6 256,194.1 256,127.4 C256,60.7 221.8,62.5 221.8,62.5 L201.3,62.5 L201.3,93.3 C201.3,93.3 202.2,127.5 167.8,127.5 L102.2,127.5 C102.2,127.5 68.6,127.1 68.6,159.8 L68.6,221.8 C68.6,221.8 63.1,256 128.5,256 Z M164.6,236.2 C158.5,236.2 153.6,231.3 153.6,225.2 C153.6,219.1 158.5,214.2 164.6,214.2 C170.7,214.2 175.6,219.1 175.6,225.2 C175.6,231.3 170.7,236.2 164.6,236.2 Z"/>
    </g>
</svg>
