<?xml version="1.0" encoding="UTF-8"?>
<svg width="256px" height="256px" viewBox="0 0 256 256" xmlns="http://www.w3.org/2000/svg">
  <path fill="#4B6C9C" d="M128 16c25.6 0 48 9.6 67.2 28.8S224 86.4 224 112c0 19.2-6.4 35.2-19.2 48-12.8 12.8-28.8 19.2-48 19.2h-57.6c-9.6 0-16 3.2-22.4 9.6-6.4 6.4-9.6 12.8-9.6 22.4v3.2c-12.8-3.2-22.4-9.6-28.8-19.2-6.4-9.6-9.6-19.2-9.6-32 0-12.8 3.2-25.6 9.6-35.2 6.4-9.6 16-16 28.8-19.2-12.8-3.2-22.4-9.6-28.8-19.2-6.4-9.6-9.6-19.2-9.6-32 0-25.6 9.6-48 28.8-67.2S102.4 16 128 16zm0 147.2c16 0 28.8-6.4 41.6-16 12.8-9.6 19.2-22.4 19.2-38.4 0-16-6.4-28.8-19.2-38.4-12.8-9.6-25.6-16-41.6-16s-28.8 6.4-41.6 16c-12.8 9.6-19.2 22.4-19.2 38.4 0 16 6.4 28.8 19.2 38.4 12.8 9.6 25.6 16 41.6 16z"/>
</svg>
